{
  "asset": {
    "version": "2.0",
    "generator": "v3d.GLTFExporter"
  },
  "scenes": [
    {
      "name": "AuxScene",
      "nodes": [
        0
      ]
    }
  ],
  "scene": 0,
  "nodes": [
    {
      "matrix": [
        0.1,
        0,
        0,
        0,
        0,
        -0.1,
        5.665538897647979e-17,
        0,
        0,
        -5.665538897647979e-17,
        -0.1,
        0,
        0,
        0,
        0,
        1
      ],
      "name": "Merged Mesh",
      "mesh": 0
    }
  ],
  "bufferViews": [
    {
      "buffer": 0,
      "byteOffset": 0,
      "byteLength": 438672,
      "target": 34962,
      "byteStride": 12
    },
    {
      "buffer": 0,
      "byteOffset": 438672,
      "byteLength": 292448,
      "target": 34962,
      "byteStride": 8
    },
    {
      "buffer": 0,
      "byteOffset": 731120,
      "byteLength": 438672,
      "target": 34962,
      "byteStride": 12
    },
    {
      "buffer": 0,
      "byteOffset": 1169792,
      "byteLength": 584896,
      "target": 34962,
      "byteStride": 16
    },
    {
      "buffer": 0,
      "byteOffset": 1754688,
      "byteLength": 347208,
      "target": 34963
    }
  ],
  "buffers": [
    {
      "byteLength": 2101896,
      "uri": "data:application/octet-stream;base64,"
    }
  ],
  "accessors": [
    {
      "bufferView": 0,
      "componentType": 5126,
      "count": 36556,
      "max": [
        101.00016021728516,
        41.31175994873047,
        16
      ],
      "min": [
        -101.00016021728516,
        -41.31175994873047,
        -16
      ],
      "type": "VEC3"
    },
    {
      "bufferView": 1,
      "componentType": 5126,
      "count": 36556,
      "max": [
        1,
        0.4031141400337219
      ],
      "min": [
        -1.0099999904632568,
        -0.4031141400337219
      ],
      "type": "VEC2"
    },
    {
      "bufferView": 2,
      "componentType": 5126,
      "count": 36556,
      "max": [
        1,
        1,
        1
      ],
      "min": [
        -1,
        -1,
        -1
      ],
      "type": "VEC3"
    },
    {
      "bufferView": 3,
      "componentType": 5126,
      "count": 36556,
      "max": [
        1,
        1,
        0.9773179292678833,
        1
      ],
      "min": [
        -0.967309296131134,
        -0.9936752915382385,
        -0.8135472536087036,
        -1
      ],
      "type": "VEC4"
    },
    {
      "bufferView": 4,
      "componentType": 5123,
      "count": 173604,
      "max": [
        36555
      ],
      "min": [
        0
      ],
      "type": "SCALAR"
    }
  ],
  "materials": [
    {
      "pbrMetallicRoughness": {
        "metallicFactor": 0.5,
        "roughnessFactor": 0.5
      },
      "name": "CustomMat"
    }
  ],
  "meshes": [
    {
      "primitives": [
        {
          "mode": 4,
          "attributes": {
            "POSITION": 0,
            "TEXCOORD_0": 1,
            "NORMAL": 2,
            "TANGENT": 3
          },
          "indices": 4,
          "material": 0
        }
      ]
    }
  ]
}